<svg class="gallow__svg" xmlns="http://www.w3.org/2000/svg" width="468" height="652" fill="none" viewBox="0 0 468 652">
  <g filter="url(#a)">
    <path fill="#6C5742" fill-opacity=".8" fill-rule="evenodd" d="M464 9c0-2.76142-2.239-5-5-5H8.99995c-2.76142 0-5 2.23858-5 5v35c0 2.7614 2.23858 5 5 5H42.529l61.974 87.262v396.505L22.6638 648h29.4514l52.3878-73.765V644c0 1.636.786 3.088 2 4h34.029c1.215-.912 2-2.364 2-4v-69.954L195.055 648h29.451l-81.974-115.423V136.179L204.447 49H392v102h9V49h58c2.761 0 5-2.2386 5-5V9ZM104.503 49v45.7937L71.9804 49h32.5226Zm38.029 45.7107V49h32.464l-32.464 45.7107Z" clip-rule="evenodd"/>
  </g>
  <g class="hangman">
    <path id="hangman__head" stroke-opacity="0" stroke="#201A13" stroke-width="10" d="M356 195a40 40 0 1 0 80 0 40 40 0 1 0-80 0"/>
    <path id="hangman__body" fill-opacity="0" fill="#201A13" d="M396 236s5 0 5 5v110s0 5-5 5-5 0-5-5V241s0-5 5-5"/>
    <path id="hangman__hand-left" fill-opacity="0" fill="#201A13" d="M392.2465339 236.5355339s3.53553391 3.53553391 0 7.07106782l-56.56854249 56.5685425s-3.5355339 3.5355339-7.07106781 0-3.5355339-3.53553391 0-7.07106782l56.5685425-56.5685425s3.5355339-3.5355339 7.0710678 0"/>
    <path id="hangman__hand-right" fill-opacity="0" fill="#201A13" d="M396.3905339 234.1504661s3.53553391-3.53553391 7.07106782 0l56.5685425 56.56854249s3.5355339 3.5355339 0 7.07106781-3.53553391 3.5355339-7.07106782 0l-56.5685425-56.5685425s-3.5355339-3.5355339 0-7.0710678"/>
    <path id="hangman__leg-left" fill-opacity="0" fill="#201A13" d="M397.74812702 350.392s4.33012702 2.5 1.83012702 6.83012702l-50 86.60254038s-2.5 4.33012702-6.83012702 1.83012702-4.33012702-2.5-1.83012702-6.83012702l50-86.60254038s2.5-4.33012702 6.83012702-1.83012702"/>
    <path id="hangman__leg-right" fill-opacity="0" fill="#201A13" d="M393.33012702 349.5s4.33012702-2.5 6.83012702 1.83012702l50 86.60254038s2.5 4.33012702-1.83012702 6.83012702S444 447.26279442 441.5 442.9326674l-50-86.60254038S389 352 393.33012702 349.5"/>
  </g>
  <defs>
    <filter id="a" width="468" height="652" x="-.00004578" y="0" color-interpolation-filters="sRGB" filterUnits="userSpaceOnUse">
      <feFlood flood-opacity="0" result="BackgroundImageFix"/>
      <feBlend in="SourceGraphic" in2="BackgroundImageFix" result="shape"/>
      <feGaussianBlur result="effect1_foregroundBlur_4024_590" stdDeviation="2"/>
    </filter>
  </defs>
</svg>